<mxfile host="app.diagrams.net" modified="2023-11-17T00:24:45.582Z" agent="Mozilla/5.0 (Windows NT 10.0; Win64; x64) AppleWebKit/537.36 (KHTML, like Gecko) Chrome/119.0.0.0 Safari/537.36" etag="Hz5yEI8OtIfEud8bufl3" version="22.1.2" type="device">
  <diagram name="Page-1" id="Rw2pMuUqsm1ZWmUqMxwc">
    <mxGraphModel dx="2664" dy="1518" grid="1" gridSize="10" guides="1" tooltips="1" connect="1" arrows="1" fold="1" page="1" pageScale="1" pageWidth="2000" pageHeight="2000" math="1" shadow="0">
      <root>
        <mxCell id="0" />
        <mxCell id="1" parent="0" />
        <mxCell id="u0Uam2JreDZSLOutLgB2-1" value="&lt;h1&gt;&lt;b&gt;&lt;font size=&quot;1&quot; style=&quot;&quot;&gt;&lt;i style=&quot;font-size: 40px;&quot;&gt;$$X$$&lt;/i&gt;&lt;/font&gt;&lt;/b&gt;&lt;/h1&gt;" style="rounded=0;whiteSpace=wrap;html=1;fillColor=#dae8fc;strokeColor=#6c8ebf;" parent="1" vertex="1">
          <mxGeometry x="200" y="320" width="200" height="440" as="geometry" />
        </mxCell>
        <mxCell id="utos1Lx-_22vaaAzd8Fd-33" value="" style="shape=trapezoid;perimeter=trapezoidPerimeter;whiteSpace=wrap;html=1;fixedSize=1;rotation=90;align=center;fillColor=#f5f5f5;fontColor=#333333;strokeColor=#666666;size=125;" vertex="1" parent="1">
          <mxGeometry x="380" y="415" width="367.5" height="250" as="geometry" />
        </mxCell>
        <mxCell id="utos1Lx-_22vaaAzd8Fd-35" value="&lt;font style=&quot;font-size: 20px;&quot;&gt;Encoder Neural Network&lt;/font&gt;" style="text;html=1;align=center;verticalAlign=middle;resizable=0;points=[];autosize=1;strokeColor=none;fillColor=none;" vertex="1" parent="1">
          <mxGeometry x="443.75" y="520" width="240" height="40" as="geometry" />
        </mxCell>
        <mxCell id="utos1Lx-_22vaaAzd8Fd-39" value="&lt;h1&gt;&lt;b&gt;&lt;font size=&quot;1&quot; style=&quot;&quot;&gt;&lt;i style=&quot;font-size: 40px;&quot;&gt;$$X&#39;$$&lt;/i&gt;&lt;/font&gt;&lt;/b&gt;&lt;/h1&gt;" style="rounded=0;whiteSpace=wrap;html=1;fillColor=#dae8fc;strokeColor=#6c8ebf;" vertex="1" parent="1">
          <mxGeometry x="1410" y="320" width="200" height="440" as="geometry" />
        </mxCell>
        <mxCell id="utos1Lx-_22vaaAzd8Fd-40" value="&lt;h1&gt;&lt;br&gt;&lt;/h1&gt;" style="rounded=0;whiteSpace=wrap;html=1;fillColor=#647687;strokeColor=#314354;fontColor=#ffffff;" vertex="1" parent="1">
          <mxGeometry x="735" y="400" width="70" height="40" as="geometry" />
        </mxCell>
        <mxCell id="utos1Lx-_22vaaAzd8Fd-52" value="&lt;h1&gt;&lt;br&gt;&lt;/h1&gt;" style="rounded=0;whiteSpace=wrap;html=1;fillColor=#647687;strokeColor=#314354;fontColor=#ffffff;" vertex="1" parent="1">
          <mxGeometry x="805" y="400" width="70" height="40" as="geometry" />
        </mxCell>
        <mxCell id="utos1Lx-_22vaaAzd8Fd-53" value="&lt;h1&gt;&lt;br&gt;&lt;/h1&gt;" style="rounded=0;whiteSpace=wrap;html=1;fillColor=#647687;strokeColor=#314354;fontColor=#ffffff;" vertex="1" parent="1">
          <mxGeometry x="735" y="440" width="70" height="40" as="geometry" />
        </mxCell>
        <mxCell id="utos1Lx-_22vaaAzd8Fd-54" value="&lt;h1&gt;&lt;br&gt;&lt;/h1&gt;" style="rounded=0;whiteSpace=wrap;html=1;fillColor=#647687;strokeColor=#314354;fontColor=#ffffff;" vertex="1" parent="1">
          <mxGeometry x="805" y="440" width="70" height="40" as="geometry" />
        </mxCell>
        <mxCell id="utos1Lx-_22vaaAzd8Fd-55" value="&lt;h1&gt;&lt;br&gt;&lt;/h1&gt;" style="rounded=0;whiteSpace=wrap;html=1;fillColor=#647687;strokeColor=#314354;fontColor=#ffffff;" vertex="1" parent="1">
          <mxGeometry x="735" y="480" width="70" height="40" as="geometry" />
        </mxCell>
        <mxCell id="utos1Lx-_22vaaAzd8Fd-56" value="&lt;h1&gt;&lt;br&gt;&lt;/h1&gt;" style="rounded=0;whiteSpace=wrap;html=1;fillColor=#647687;strokeColor=#314354;fontColor=#ffffff;" vertex="1" parent="1">
          <mxGeometry x="805" y="480" width="70" height="40" as="geometry" />
        </mxCell>
        <mxCell id="utos1Lx-_22vaaAzd8Fd-57" value="&lt;h1&gt;&lt;br&gt;&lt;/h1&gt;" style="rounded=0;whiteSpace=wrap;html=1;fillColor=#647687;strokeColor=#314354;fontColor=#ffffff;" vertex="1" parent="1">
          <mxGeometry x="735" y="520" width="70" height="40" as="geometry" />
        </mxCell>
        <mxCell id="utos1Lx-_22vaaAzd8Fd-58" value="&lt;h1&gt;&lt;br&gt;&lt;/h1&gt;" style="rounded=0;whiteSpace=wrap;html=1;fillColor=#647687;strokeColor=#314354;fontColor=#ffffff;" vertex="1" parent="1">
          <mxGeometry x="805" y="520" width="70" height="40" as="geometry" />
        </mxCell>
        <mxCell id="utos1Lx-_22vaaAzd8Fd-59" value="&lt;h1&gt;&lt;br&gt;&lt;/h1&gt;" style="rounded=0;whiteSpace=wrap;html=1;fillColor=#647687;strokeColor=#314354;fontColor=#ffffff;" vertex="1" parent="1">
          <mxGeometry x="735" y="560" width="70" height="40" as="geometry" />
        </mxCell>
        <mxCell id="utos1Lx-_22vaaAzd8Fd-60" value="&lt;h1&gt;&lt;br&gt;&lt;/h1&gt;" style="rounded=0;whiteSpace=wrap;html=1;fillColor=#647687;strokeColor=#314354;fontColor=#ffffff;" vertex="1" parent="1">
          <mxGeometry x="805" y="560" width="70" height="40" as="geometry" />
        </mxCell>
        <mxCell id="utos1Lx-_22vaaAzd8Fd-61" value="&lt;h1&gt;&lt;br&gt;&lt;/h1&gt;" style="rounded=0;whiteSpace=wrap;html=1;fillColor=#647687;strokeColor=#314354;fontColor=#ffffff;" vertex="1" parent="1">
          <mxGeometry x="735" y="600" width="70" height="40" as="geometry" />
        </mxCell>
        <mxCell id="utos1Lx-_22vaaAzd8Fd-62" value="&lt;h1&gt;&lt;br&gt;&lt;/h1&gt;" style="rounded=0;whiteSpace=wrap;html=1;fillColor=#647687;strokeColor=#314354;fontColor=#ffffff;" vertex="1" parent="1">
          <mxGeometry x="805" y="600" width="70" height="40" as="geometry" />
        </mxCell>
        <mxCell id="utos1Lx-_22vaaAzd8Fd-63" value="&lt;h1&gt;&lt;br&gt;&lt;/h1&gt;" style="rounded=0;whiteSpace=wrap;html=1;fillColor=#647687;strokeColor=#314354;fontColor=#ffffff;" vertex="1" parent="1">
          <mxGeometry x="735" y="640" width="70" height="40" as="geometry" />
        </mxCell>
        <mxCell id="utos1Lx-_22vaaAzd8Fd-64" value="&lt;h1&gt;&lt;br&gt;&lt;/h1&gt;" style="rounded=0;whiteSpace=wrap;html=1;fillColor=#647687;strokeColor=#314354;fontColor=#ffffff;" vertex="1" parent="1">
          <mxGeometry x="805" y="640" width="70" height="40" as="geometry" />
        </mxCell>
        <mxCell id="utos1Lx-_22vaaAzd8Fd-65" value="&lt;h1&gt;&lt;br&gt;&lt;/h1&gt;" style="rounded=0;whiteSpace=wrap;html=1;fillColor=#647687;strokeColor=#314354;fontColor=#ffffff;" vertex="1" parent="1">
          <mxGeometry x="735" y="680" width="70" height="40" as="geometry" />
        </mxCell>
        <mxCell id="utos1Lx-_22vaaAzd8Fd-66" value="&lt;h1&gt;&lt;br&gt;&lt;/h1&gt;" style="rounded=0;whiteSpace=wrap;html=1;fillColor=#647687;strokeColor=#314354;fontColor=#ffffff;" vertex="1" parent="1">
          <mxGeometry x="805" y="680" width="70" height="40" as="geometry" />
        </mxCell>
        <mxCell id="utos1Lx-_22vaaAzd8Fd-67" value="&lt;font style=&quot;font-size: 20px;&quot;&gt;$$\mu$$&lt;/font&gt;" style="text;html=1;align=center;verticalAlign=middle;resizable=0;points=[];autosize=1;strokeColor=none;fillColor=none;" vertex="1" parent="1">
          <mxGeometry x="720" y="360" width="100" height="40" as="geometry" />
        </mxCell>
        <mxCell id="utos1Lx-_22vaaAzd8Fd-68" value="&lt;font style=&quot;font-size: 20px;&quot;&gt;$$\sigma$$&lt;/font&gt;" style="text;html=1;align=center;verticalAlign=middle;resizable=0;points=[];autosize=1;strokeColor=none;fillColor=none;" vertex="1" parent="1">
          <mxGeometry x="775" y="363" width="130" height="40" as="geometry" />
        </mxCell>
        <mxCell id="utos1Lx-_22vaaAzd8Fd-71" value="" style="endArrow=classic;html=1;rounded=0;" edge="1" parent="1">
          <mxGeometry width="50" height="50" relative="1" as="geometry">
            <mxPoint x="880" y="540" as="sourcePoint" />
            <mxPoint x="1000" y="540" as="targetPoint" />
          </mxGeometry>
        </mxCell>
        <mxCell id="utos1Lx-_22vaaAzd8Fd-72" value="&lt;h1&gt;&lt;br&gt;&lt;/h1&gt;" style="rounded=0;whiteSpace=wrap;html=1;fillColor=#647687;strokeColor=#314354;fontColor=#ffffff;" vertex="1" parent="1">
          <mxGeometry x="1020" y="403" width="70" height="40" as="geometry" />
        </mxCell>
        <mxCell id="utos1Lx-_22vaaAzd8Fd-73" value="&lt;h1&gt;&lt;br&gt;&lt;/h1&gt;" style="rounded=0;whiteSpace=wrap;html=1;fillColor=#647687;strokeColor=#314354;fontColor=#ffffff;" vertex="1" parent="1">
          <mxGeometry x="1020" y="443" width="70" height="40" as="geometry" />
        </mxCell>
        <mxCell id="utos1Lx-_22vaaAzd8Fd-74" value="&lt;h1&gt;&lt;br&gt;&lt;/h1&gt;" style="rounded=0;whiteSpace=wrap;html=1;fillColor=#647687;strokeColor=#314354;fontColor=#ffffff;" vertex="1" parent="1">
          <mxGeometry x="1020" y="483" width="70" height="40" as="geometry" />
        </mxCell>
        <mxCell id="utos1Lx-_22vaaAzd8Fd-75" value="&lt;h1&gt;&lt;br&gt;&lt;/h1&gt;" style="rounded=0;whiteSpace=wrap;html=1;fillColor=#647687;strokeColor=#314354;fontColor=#ffffff;" vertex="1" parent="1">
          <mxGeometry x="1020" y="523" width="70" height="40" as="geometry" />
        </mxCell>
        <mxCell id="utos1Lx-_22vaaAzd8Fd-76" value="&lt;h1&gt;&lt;br&gt;&lt;/h1&gt;" style="rounded=0;whiteSpace=wrap;html=1;fillColor=#647687;strokeColor=#314354;fontColor=#ffffff;" vertex="1" parent="1">
          <mxGeometry x="1020" y="563" width="70" height="40" as="geometry" />
        </mxCell>
        <mxCell id="utos1Lx-_22vaaAzd8Fd-77" value="&lt;h1&gt;&lt;br&gt;&lt;/h1&gt;" style="rounded=0;whiteSpace=wrap;html=1;fillColor=#647687;strokeColor=#314354;fontColor=#ffffff;" vertex="1" parent="1">
          <mxGeometry x="1020" y="603" width="70" height="40" as="geometry" />
        </mxCell>
        <mxCell id="utos1Lx-_22vaaAzd8Fd-78" value="&lt;h1&gt;&lt;br&gt;&lt;/h1&gt;" style="rounded=0;whiteSpace=wrap;html=1;fillColor=#647687;strokeColor=#314354;fontColor=#ffffff;" vertex="1" parent="1">
          <mxGeometry x="1020" y="643" width="70" height="40" as="geometry" />
        </mxCell>
        <mxCell id="utos1Lx-_22vaaAzd8Fd-79" value="&lt;h1&gt;&lt;br&gt;&lt;/h1&gt;" style="rounded=0;whiteSpace=wrap;html=1;fillColor=#647687;strokeColor=#314354;fontColor=#ffffff;" vertex="1" parent="1">
          <mxGeometry x="1020" y="683" width="70" height="40" as="geometry" />
        </mxCell>
        <mxCell id="utos1Lx-_22vaaAzd8Fd-80" value="&lt;font style=&quot;font-size: 18px;&quot;&gt;Sample&lt;/font&gt;" style="text;html=1;align=center;verticalAlign=middle;resizable=0;points=[];autosize=1;strokeColor=none;fillColor=none;" vertex="1" parent="1">
          <mxGeometry x="900" y="500" width="80" height="40" as="geometry" />
        </mxCell>
        <mxCell id="utos1Lx-_22vaaAzd8Fd-81" value="&lt;font style=&quot;font-size: 20px;&quot;&gt;$$\mu + \sigma \odot \epsilon$$&lt;/font&gt;" style="text;html=1;align=center;verticalAlign=middle;resizable=0;points=[];autosize=1;strokeColor=none;fillColor=none;" vertex="1" parent="1">
          <mxGeometry x="900" y="363" width="310" height="40" as="geometry" />
        </mxCell>
        <mxCell id="utos1Lx-_22vaaAzd8Fd-82" value="&lt;font style=&quot;font-size: 20px;&quot;&gt;$$Z$$&lt;br&gt;&lt;/font&gt;" style="text;html=1;align=center;verticalAlign=middle;resizable=0;points=[];autosize=1;strokeColor=none;fillColor=none;" vertex="1" parent="1">
          <mxGeometry x="1015" y="750" width="80" height="40" as="geometry" />
        </mxCell>
        <mxCell id="utos1Lx-_22vaaAzd8Fd-83" value="" style="shape=trapezoid;perimeter=trapezoidPerimeter;whiteSpace=wrap;html=1;fixedSize=1;rotation=-90;align=center;fillColor=#f5f5f5;fontColor=#333333;strokeColor=#666666;size=125;" vertex="1" parent="1">
          <mxGeometry x="1070" y="415" width="367.5" height="250" as="geometry" />
        </mxCell>
        <mxCell id="utos1Lx-_22vaaAzd8Fd-84" value="&lt;font style=&quot;font-size: 20px;&quot;&gt;Inner Product Decoder&lt;/font&gt;" style="text;html=1;align=center;verticalAlign=middle;resizable=0;points=[];autosize=1;strokeColor=none;fillColor=none;" vertex="1" parent="1">
          <mxGeometry x="1143.75" y="520" width="220" height="40" as="geometry" />
        </mxCell>
      </root>
    </mxGraphModel>
  </diagram>
</mxfile>
